<svg xmlns="http://www.w3.org/2000/svg" xmlns:xlink="http://www.w3.org/1999/xlink" version="1.1" width="20" height="20" viewBox="0 0 256 256" xml:space="preserve">
<desc>Created with Fabric.js 1.7.22</desc>
<defs>
</defs>
<g transform="translate(128 128) scale(0.72 0.72)" style="">
	<g style="stroke: none; stroke-width: 0; stroke-dasharray: none; stroke-linecap: butt; stroke-linejoin: miter; stroke-miterlimit: 10; fill: none; fill-rule: nonzero; opacity: 1;" transform="translate(-175.05 -175.05) scale(3.89 3.89)" >
	<path d="M 61.816 43.163 h -0.409 c -0.852 0 -1.664 -0.172 -2.404 -0.484 c -0.676 2.695 -3.118 4.696 -6.02 4.696 h -0.408 c -0.996 0 -1.937 -0.236 -2.772 -0.654 c -0.977 2.147 -3.144 3.643 -5.652 3.643 h -0.408 c -0.781 0 -1.529 -0.145 -2.218 -0.409 v 8.401 c 0 3.422 -2.784 6.206 -6.206 6.206 h -0.408 c -3.422 0 -6.206 -2.784 -6.206 -6.206 V 36.258 l -2.681 -2.035 c -2.225 -1.689 -3.635 -4.146 -3.971 -6.918 c -0.336 -2.773 0.446 -5.495 2.202 -7.667 l 8.536 -10.553 V 4.931 c 0 -2.643 2.15 -4.794 4.794 -4.794 h 21.402 c 2.643 0 4.793 2.151 4.793 4.794 l 0.001 3.941 c 2.74 3.465 4.241 7.755 4.241 12.165 v 15.921 C 68.022 40.379 65.238 43.163 61.816 43.163 z" style="stroke: none; stroke-width: 1; stroke-dasharray: none; stroke-linecap: butt; stroke-linejoin: miter; stroke-miterlimit: 10; fill: rgb(255,255,255); fill-rule: nonzero; opacity: 1;" transform=" matrix(1 0 0 1 0 0) " stroke-linecap="round" />
	<path d="M 88.006 89.863 H 1.994 C 0.893 89.863 0 88.971 0 87.87 V 56.525 c 0 -1.101 0.893 -1.994 1.994 -1.994 h 10.001 c 1.101 0 1.994 0.893 1.994 1.994 V 76.23 h 62.022 V 56.525 c 0 -1.101 0.893 -1.994 1.994 -1.994 h 10.001 c 1.101 0 1.994 0.893 1.994 1.994 V 87.87 C 90 88.971 89.107 89.863 88.006 89.863 z" style="stroke: none; stroke-width: 1; stroke-dasharray: none; stroke-linecap: butt; stroke-linejoin: miter; stroke-miterlimit: 10; fill: rgb(255,255,255); fill-rule: nonzero; opacity: 1;" transform=" matrix(1 0 0 1 0 0) " stroke-linecap="round" />
</g>
</g>
</svg>