<svg xmlns="http://www.w3.org/2000/svg" xmlns:xlink="http://www.w3.org/1999/xlink" version="1.1" width="256" height="256" viewBox="0 0 256 256" xml:space="preserve">
<desc>Created with Fabric.js 1.7.22</desc>
<defs>
</defs>
<g transform="translate(128 128) scale(0.72 0.72)" style="">
	<g style="stroke: none; stroke-width: 0; stroke-dasharray: none; stroke-linecap: butt; stroke-linejoin: miter; stroke-miterlimit: 10; fill: none; fill-rule: nonzero; opacity: 1;" transform="translate(-175.05 -175.05) scale(3.89 3.89)" >
	<path d="M 67.109 36.803 c -1.172 -1.172 -3.07 -1.171 -4.242 0 L 48 51.67 V 3 c 0 -1.657 -1.343 -3 -3 -3 c -1.657 0 -3 1.343 -3 3 v 48.67 L 27.133 36.803 c -1.171 -1.172 -3.071 -1.172 -4.242 0 c -1.172 1.171 -1.172 3.071 0 4.242 L 42.876 61.03 c 0.14 0.141 0.295 0.266 0.461 0.377 c 0.071 0.047 0.148 0.08 0.222 0.121 c 0.097 0.054 0.191 0.112 0.294 0.155 c 0.098 0.04 0.199 0.063 0.3 0.093 c 0.087 0.026 0.17 0.059 0.26 0.077 c 0.194 0.039 0.39 0.059 0.587 0.059 c 0.197 0 0.393 -0.021 0.587 -0.059 c 0.092 -0.018 0.178 -0.053 0.267 -0.079 c 0.098 -0.029 0.197 -0.051 0.292 -0.091 c 0.108 -0.045 0.206 -0.105 0.307 -0.162 c 0.069 -0.039 0.142 -0.069 0.208 -0.113 c 0.167 -0.111 0.322 -0.237 0.463 -0.379 l 19.984 -19.983 C 68.281 39.874 68.281 37.975 67.109 36.803 z" style="stroke: none; stroke-width: 1; stroke-dasharray: none; stroke-linecap: butt; stroke-linejoin: miter; stroke-miterlimit: 10; fill: rgb(0,0,0); fill-rule: nonzero; opacity: 1;" transform=" matrix(1 0 0 1 0 0) " stroke-linecap="round" />
	<path d="M 45 90 C 20.187 90 0 69.813 0 45 C 0 26.412 11.681 9.498 29.067 2.913 c 1.549 -0.587 3.281 0.194 3.868 1.743 s -0.193 3.281 -1.743 3.868 C 16.124 14.231 6 28.89 6 45 c 0 21.505 17.495 39 39 39 s 39 -17.495 39 -39 c 0 -16.11 -10.124 -30.769 -25.191 -36.476 c -1.55 -0.587 -2.33 -2.319 -1.743 -3.868 c 0.586 -1.549 2.317 -2.329 3.868 -1.743 C 78.319 9.499 90 26.412 90 45 C 90 69.813 69.813 90 45 90 z" style="stroke: none; stroke-width: 1; stroke-dasharray: none; stroke-linecap: butt; stroke-linejoin: miter; stroke-miterlimit: 10; fill: rgb(0,0,0); fill-rule: nonzero; opacity: 1;" transform=" matrix(1 0 0 1 0 0) " stroke-linecap="round" />
</g>
</g>
</svg>