<svg xmlns="http://www.w3.org/2000/svg" xmlns:xlink="http://www.w3.org/1999/xlink" version="1.1" width="256" height="256" viewBox="0 0 256 256" xml:space="preserve">
<desc>Created with Fabric.js 1.7.22</desc>
<defs>
</defs>
<g transform="translate(128 128) scale(0.72 0.72)" style="">
	<g style="stroke: none; stroke-width: 0; stroke-dasharray: none; stroke-linecap: butt; stroke-linejoin: miter; stroke-miterlimit: 10; fill: none; fill-rule: nonzero; opacity: 1;" transform="translate(-175.05 -175.05) scale(3.89 3.89)" >
	<path d="M 77.474 17.28 L 61.526 1.332 C 60.668 0.473 59.525 0 58.311 0 H 15.742 c -2.508 0 -4.548 2.04 -4.548 4.548 v 80.904 c 0 2.508 2.04 4.548 4.548 4.548 h 58.516 c 2.508 0 4.549 -2.04 4.549 -4.548 V 20.496 C 78.807 19.281 78.333 18.138 77.474 17.28 z M 61.073 5.121 l 12.611 12.612 H 62.35 c -0.704 0 -1.276 -0.573 -1.276 -1.277 V 5.121 z M 15.742 3 h 42.332 v 13.456 c 0 2.358 1.918 4.277 4.276 4.277 h 13.457 v 33.2 H 14.194 V 4.548 C 14.194 3.694 14.888 3 15.742 3 z M 74.258 87 H 15.742 c -0.854 0 -1.548 -0.694 -1.548 -1.548 V 56.934 h 61.613 v 28.519 C 75.807 86.306 75.112 87 74.258 87 z" style="stroke: none; stroke-width: 1; stroke-dasharray: none; stroke-linecap: butt; stroke-linejoin: miter; stroke-miterlimit: 10; fill: rgb(0,0,0); fill-rule: nonzero; opacity: 1;" transform=" matrix(1 0 0 1 0 0) " stroke-linecap="round" />
	<path d="M 62.702 82.28 h -6.334 c -0.828 0 -1.5 -0.672 -1.5 -1.5 s 0.672 -1.5 1.5 -1.5 h 6.334 c 0.522 0 0.948 -0.426 0.948 -0.948 v -3.404 c 0 -0.522 -0.426 -0.948 -0.948 -0.948 h -3.886 c -2.177 0 -3.948 -1.771 -3.948 -3.948 v -3.404 c 0 -2.177 1.771 -3.948 3.948 -3.948 h 4.313 c 0.828 0 1.5 0.672 1.5 1.5 s -0.672 1.5 -1.5 1.5 h -4.313 c -0.522 0 -0.948 0.426 -0.948 0.948 v 3.404 c 0 0.522 0.426 0.948 0.948 0.948 h 3.886 c 2.177 0 3.948 1.771 3.948 3.948 v 3.404 C 66.65 80.509 64.879 82.28 62.702 82.28 z" style="stroke: none; stroke-width: 1; stroke-dasharray: none; stroke-linecap: butt; stroke-linejoin: miter; stroke-miterlimit: 10; fill: rgb(0,0,0); fill-rule: nonzero; opacity: 1;" transform=" matrix(1 0 0 1 0 0) " stroke-linecap="round" />
	<path d="M 49.898 82.343 h -5.969 c -2.397 0 -4.347 -1.949 -4.347 -4.346 V 64.179 c 0 -0.828 0.671 -1.5 1.5 -1.5 s 1.5 0.672 1.5 1.5 v 13.818 c 0 0.742 0.604 1.346 1.347 1.346 h 5.969 c 0.828 0 1.5 0.672 1.5 1.5 S 50.727 82.343 49.898 82.343 z" style="stroke: none; stroke-width: 1; stroke-dasharray: none; stroke-linecap: butt; stroke-linejoin: miter; stroke-miterlimit: 10; fill: rgb(0,0,0); fill-rule: nonzero; opacity: 1;" transform=" matrix(1 0 0 1 0 0) " stroke-linecap="round" />
	<path d="M 30.937 72.479 l 4.02 -7.6 c 0.388 -0.732 0.108 -1.64 -0.624 -2.027 c -0.732 -0.387 -1.64 -0.107 -2.027 0.625 l -3.066 5.795 l -3.066 -5.795 c -0.388 -0.732 -1.295 -1.012 -2.027 -0.625 c -0.732 0.388 -1.012 1.295 -0.624 2.027 l 4.02 7.6 l -4.02 7.6 c -0.388 0.732 -0.108 1.64 0.624 2.027 c 0.224 0.118 0.464 0.174 0.7 0.174 c 0.538 0 1.058 -0.29 1.327 -0.799 l 3.066 -5.795 l 3.066 5.795 c 0.269 0.509 0.789 0.799 1.327 0.799 c 0.236 0 0.477 -0.056 0.7 -0.174 c 0.732 -0.388 1.012 -1.295 0.624 -2.027 L 30.937 72.479 z" style="stroke: none; stroke-width: 1; stroke-dasharray: none; stroke-linecap: butt; stroke-linejoin: miter; stroke-miterlimit: 10; fill: rgb(0,0,0); fill-rule: nonzero; opacity: 1;" transform=" matrix(1 0 0 1 0 0) " stroke-linecap="round" />
</g>
</g>
</svg>