<svg xmlns="http://www.w3.org/2000/svg" xmlns:xlink="http://www.w3.org/1999/xlink" version="1.1" width="256" height="256" viewBox="0 0 256 256" xml:space="preserve">
<desc>Created with Fabric.js 1.7.22</desc>
<defs>
</defs>
<g transform="translate(128 128) scale(0.72 0.72)" style="">
	<g style="stroke: none; stroke-width: 0; stroke-dasharray: none; stroke-linecap: butt; stroke-linejoin: miter; stroke-miterlimit: 10; fill: none; fill-rule: nonzero; opacity: 1;" transform="translate(-175.05 -175.05) scale(3.89 3.89)" >
	<path d="M 77.474 17.28 L 61.526 1.332 C 60.668 0.473 59.525 0 58.311 0 H 15.742 c -2.508 0 -4.548 2.04 -4.548 4.548 v 80.904 c 0 2.508 2.04 4.548 4.548 4.548 h 58.516 c 2.508 0 4.549 -2.04 4.549 -4.548 V 20.496 C 78.807 19.281 78.333 18.138 77.474 17.28 z M 61.073 5.121 l 12.611 12.612 H 62.35 c -0.704 0 -1.276 -0.573 -1.276 -1.277 V 5.121 z M 15.742 3 h 42.332 v 13.456 c 0 2.358 1.918 4.277 4.276 4.277 h 13.457 v 33.2 H 14.194 V 4.548 C 14.194 3.694 14.888 3 15.742 3 z M 74.258 87 H 15.742 c -0.854 0 -1.548 -0.694 -1.548 -1.548 V 56.934 h 61.613 v 28.519 C 75.807 86.306 75.112 87 74.258 87 z" style="stroke: none; stroke-width: 1; stroke-dasharray: none; stroke-linecap: butt; stroke-linejoin: miter; stroke-miterlimit: 10; fill: rgb(0,0,0); fill-rule: nonzero; opacity: 1;" transform=" matrix(1 0 0 1 0 0) " stroke-linecap="round" />
	<path d="M 70.3 80.484 h -5.061 c -2.157 0 -3.913 -1.756 -3.913 -3.914 V 64.855 c 0 -0.828 0.672 -1.5 1.5 -1.5 s 1.5 0.672 1.5 1.5 V 76.57 c 0 0.504 0.409 0.914 0.913 0.914 H 70.3 c 0.828 0 1.5 0.672 1.5 1.5 S 71.128 80.484 70.3 80.484 z" style="stroke: none; stroke-width: 1; stroke-dasharray: none; stroke-linecap: butt; stroke-linejoin: miter; stroke-miterlimit: 10; fill: rgb(0,0,0); fill-rule: nonzero; opacity: 1;" transform=" matrix(1 0 0 1 0 0) " stroke-linecap="round" />
	<path d="M 27.174 63.355 c -0.829 0 -1.5 0.672 -1.5 1.5 v 5.564 H 21.2 v -5.564 c 0 -0.828 -0.671 -1.5 -1.5 -1.5 s -1.5 0.672 -1.5 1.5 v 14.129 c 0 0.828 0.671 1.5 1.5 1.5 s 1.5 -0.672 1.5 -1.5 V 73.42 h 4.474 v 5.564 c 0 0.828 0.671 1.5 1.5 1.5 s 1.5 -0.672 1.5 -1.5 V 64.855 C 28.674 64.027 28.002 63.355 27.174 63.355 z" style="stroke: none; stroke-width: 1; stroke-dasharray: none; stroke-linecap: butt; stroke-linejoin: miter; stroke-miterlimit: 10; fill: rgb(0,0,0); fill-rule: nonzero; opacity: 1;" transform=" matrix(1 0 0 1 0 0) " stroke-linecap="round" />
	<path d="M 40.183 63.355 h -7.475 c -0.829 0 -1.5 0.672 -1.5 1.5 s 0.671 1.5 1.5 1.5 h 2.237 v 12.629 c 0 0.828 0.671 1.5 1.5 1.5 s 1.5 -0.672 1.5 -1.5 V 66.355 h 2.237 c 0.829 0 1.5 -0.672 1.5 -1.5 S 41.011 63.355 40.183 63.355 z" style="stroke: none; stroke-width: 1; stroke-dasharray: none; stroke-linecap: butt; stroke-linejoin: miter; stroke-miterlimit: 10; fill: rgb(0,0,0); fill-rule: nonzero; opacity: 1;" transform=" matrix(1 0 0 1 0 0) " stroke-linecap="round" />
	<path d="M 56.891 63.438 c -0.604 -0.209 -1.274 -0.013 -1.67 0.492 l -3.993 5.087 l -3.993 -5.087 c -0.396 -0.505 -1.068 -0.702 -1.669 -0.492 c -0.604 0.209 -1.01 0.778 -1.01 1.418 v 14.129 c 0 0.828 0.671 1.5 1.5 1.5 c 0.828 0 1.5 -0.672 1.5 -1.5 v -9.789 l 2.493 3.176 c 0.005 0.007 0.012 0.011 0.017 0.018 c 0.032 0.04 0.07 0.075 0.107 0.111 c 0.037 0.037 0.072 0.075 0.111 0.107 c 0.007 0.005 0.011 0.012 0.018 0.017 c 0.028 0.022 0.058 0.036 0.087 0.055 c 0.047 0.032 0.094 0.065 0.144 0.091 c 0.042 0.022 0.086 0.038 0.129 0.056 c 0.046 0.019 0.091 0.039 0.139 0.053 c 0.048 0.014 0.096 0.022 0.144 0.032 c 0.046 0.009 0.092 0.019 0.138 0.024 c 0.048 0.005 0.096 0.003 0.144 0.003 s 0.096 0.001 0.145 -0.003 c 0.047 -0.005 0.092 -0.015 0.138 -0.023 c 0.049 -0.009 0.097 -0.018 0.145 -0.032 c 0.047 -0.014 0.092 -0.034 0.138 -0.053 c 0.044 -0.018 0.087 -0.034 0.13 -0.056 c 0.05 -0.026 0.096 -0.059 0.144 -0.091 c 0.029 -0.019 0.059 -0.034 0.087 -0.055 c 0.007 -0.005 0.011 -0.012 0.018 -0.017 c 0.04 -0.032 0.075 -0.07 0.111 -0.107 c 0.037 -0.037 0.075 -0.072 0.107 -0.111 c 0.005 -0.007 0.012 -0.011 0.017 -0.018 l 2.493 -3.176 v 9.789 c 0 0.828 0.672 1.5 1.5 1.5 s 1.5 -0.672 1.5 -1.5 V 64.855 C 57.9 64.216 57.495 63.646 56.891 63.438 z" style="stroke: none; stroke-width: 1; stroke-dasharray: none; stroke-linecap: butt; stroke-linejoin: miter; stroke-miterlimit: 10; fill: rgb(0,0,0); fill-rule: nonzero; opacity: 1;" transform=" matrix(1 0 0 1 0 0) " stroke-linecap="round" />
</g>
</g>
</svg>