<?xml version="1.0" encoding="UTF-8" standalone="no"?>
<!-- Created with Inkscape (http://www.inkscape.org/) -->

<svg
   width="181.55846mm"
   height="57.308037mm"
   viewBox="0 0 181.55846 57.308037"
   version="1.1"
   id="svg5"
   xmlns="http://www.w3.org/2000/svg"
   xmlns:svg="http://www.w3.org/2000/svg">
  <defs
     id="defs2">
    <rect
       x="706.39967"
       y="242.53762"
       width="811.75858"
       height="287.08535"
       id="rect37462" />
  </defs>
  <g
     id="layer1"
     transform="translate(-14.930082,-14.537152)">
    <circle
       id="path19718"
       style="fill:#000000;stroke:#000000;stroke-width:1.72791"
       cx="173.13251"
       cy="48.923107"
       r="0.029201429" />
    <circle
       id="path19720"
       style="fill:#000000;stroke:#000000;stroke-width:1.72791"
       cx="173.13251"
       cy="48.923107"
       r="0.029201429" />
    <g
       aria-label="Filexio"
       id="text31524"
       style="font-size:57.0639px;line-height:1.25;stroke-width:1.4266;fill:#000000">
      <path
         d="M 45.829136,28.608355 H 24.848122 v 11.702558 h 18.027511 v 4.903929 H 24.848122 V 65.19278 h -5.51692 V 23.704426 h 26.497934 z"
         id="path32786"
         style="fill:#ffffff" />
      <path
         d="m 57.336651,28.859124 h -5.907005 v -5.43333 h 5.907005 z M 57.002292,65.19278 H 51.764005 V 34.069549 h 5.238287 z"
         id="path32788"
         style="fill:#ffffff" />
      <path
         d="M 72.66143,65.19278 H 67.423142 V 21.83759 h 5.238288 z"
         id="path32790"
         style="fill:#ffffff" />
      <path
         d="M 109.07867,50.174497 H 86.147232 q 0,2.869913 0.86376,5.015382 0.86376,2.117606 2.368375,3.482904 1.448888,1.337435 3.427177,2.006153 2.006153,0.668717 4.402391,0.668717 3.176405,0 6.380685,-1.253845 3.23213,-1.281709 4.59743,-2.507691 h 0.27863 v 5.711963 q -2.64701,1.114529 -5.40547,1.866836 -2.75846,0.752308 -5.795548,0.752308 -7.745979,0 -12.092643,-4.179485 -4.346664,-4.207348 -4.346664,-11.925464 0,-7.634525 4.151621,-12.120506 4.179485,-4.48598 10.978114,-4.48598 6.29709,0 9.6964,3.677946 3.42718,3.677947 3.42718,10.448713 z m -5.09897,-4.012305 q -0.0279,-4.123759 -2.08974,-6.38068 -2.034018,-2.256922 -6.213503,-2.256922 -4.207348,0 -6.715039,2.479827 -2.479827,2.479828 -2.814186,6.157775 z"
         id="path32792"
         style="fill:#ffffff" />
      <path
         d="m 143.96344,65.19278 h -6.60358 l -8.83265,-11.953327 -14.12685,18.501429 h -6.10205 l 17.38685,-22.067923 -12.03691,-15.60341 h 6.60358 l 8.77692,11.758284 24.11033,-31.290681 6.12991,0 -27.5375,34.857175 z"
         id="path32794"
         style="fill:#ffcc00" />
      <path
         d="m 156.4183,28.859124 -4.64691,0.09354 4.64691,-5.526874 z m -0.33435,36.333656 h -5.23829 V 34.069549 h 5.23829 z"
         id="path32796"
         style="fill:#ffffff" />
      <path
         d="m 192.97486,49.645096 q 0,7.606662 -3.90085,12.009053 -3.90085,4.402391 -10.44871,4.402391 -6.60359,0 -10.50444,-4.402391 -3.87299,-4.402391 -3.87299,-12.009053 0,-7.606663 3.87299,-12.009053 3.90085,-4.430254 10.50444,-4.430254 6.54786,0 10.44871,4.430254 3.90085,4.40239 3.90085,12.009053 z m -5.40546,0 q 0,-6.046322 -2.36838,-8.971961 -2.36837,-2.953503 -6.57572,-2.953503 -4.26308,0 -6.63145,2.953503 -2.34051,2.925639 -2.34051,8.971961 0,5.851279 2.36837,8.888371 2.36838,3.009229 6.60359,3.009229 4.17948,0 6.54786,-2.981366 2.39624,-3.009229 2.39624,-8.916234 z"
         id="path32798"
         style="fill:#ffffff" />
    </g>
    <text
       xml:space="preserve"
       transform="matrix(0.26458333,0,0,0.26458333,14.930082,14.537152)"
       id="text37460"
       style="fill:black;fill-opacity:1;line-height:1.25;stroke:none;font-family:sans-serif;font-style:normal;font-weight:normal;font-size:40px;white-space:pre;shape-inside:url(#rect37462)" />
  </g>
</svg>
