<svg xmlns="http://www.w3.org/2000/svg" xmlns:xlink="http://www.w3.org/1999/xlink" version="1.1" width="25" height="25" viewBox="0 0 256 256" xml:space="preserve">
<desc>Created with Fabric.js 1.7.22</desc>
<defs>
</defs>
<g transform="translate(128 128) scale(0.72 0.72)" style="">
	<g style="stroke: none; stroke-width: 0; stroke-dasharray: none; stroke-linecap: butt; stroke-linejoin: miter; stroke-miterlimit: 10; fill: none; fill-rule: nonzero; opacity: 1;" transform="translate(-175.05 -175.05) scale(3.89 3.89)" >
	<path d="M 77.474 17.28 L 61.526 1.332 C 60.668 0.473 59.525 0 58.311 0 H 15.742 c -2.508 0 -4.548 2.04 -4.548 4.548 v 80.904 c 0 2.508 2.04 4.548 4.548 4.548 h 58.516 c 2.508 0 4.549 -2.04 4.549 -4.548 V 20.496 C 78.807 19.281 78.333 18.138 77.474 17.28 z M 61.073 5.121 l 12.611 12.612 H 62.35 c -0.704 0 -1.276 -0.573 -1.276 -1.277 V 5.121 z M 15.742 3 h 42.332 v 13.456 c 0 2.358 1.918 4.277 4.276 4.277 h 13.457 v 33.2 H 14.194 V 4.548 C 14.194 3.694 14.888 3 15.742 3 z M 74.258 87 H 15.742 c -0.854 0 -1.548 -0.694 -1.548 -1.548 V 56.934 h 61.613 v 28.519 C 75.807 86.306 75.112 87 74.258 87 z" style="stroke: none; stroke-width: 1; stroke-dasharray: none; stroke-linecap: butt; stroke-linejoin: miter; stroke-miterlimit: 10; fill: rgb(255,255,255); fill-rule: nonzero; opacity: 1;" transform=" matrix(1 0 0 1 0 0) " stroke-linecap="round" />
	<path d="M 36.287 62.769 c -0.606 -0.209 -1.276 -0.011 -1.67 0.492 l -4.922 6.269 l -4.923 -6.27 c -0.394 -0.502 -1.063 -0.7 -1.67 -0.491 c -0.604 0.209 -1.01 0.778 -1.01 1.418 v 16.664 c 0 0.828 0.671 1.5 1.5 1.5 s 1.5 -0.672 1.5 -1.5 V 68.526 l 3.422 4.359 c 0.006 0.007 0.013 0.013 0.019 0.02 c 0.03 0.037 0.066 0.07 0.1 0.104 c 0.038 0.039 0.075 0.079 0.117 0.112 c 0.006 0.005 0.011 0.012 0.018 0.017 c 0.027 0.021 0.058 0.035 0.086 0.055 c 0.048 0.032 0.094 0.065 0.145 0.092 c 0.042 0.022 0.085 0.038 0.128 0.055 c 0.046 0.019 0.092 0.039 0.139 0.053 c 0.048 0.014 0.096 0.022 0.145 0.032 c 0.046 0.009 0.092 0.019 0.138 0.023 c 0.048 0.005 0.095 0.003 0.143 0.003 c 0.049 0 0.098 0.001 0.147 -0.004 c 0.045 -0.004 0.088 -0.014 0.132 -0.022 c 0.051 -0.01 0.102 -0.018 0.152 -0.033 c 0.044 -0.013 0.085 -0.032 0.128 -0.049 c 0.047 -0.019 0.095 -0.037 0.14 -0.061 c 0.046 -0.024 0.088 -0.054 0.131 -0.083 c 0.032 -0.021 0.066 -0.037 0.097 -0.062 c 0.007 -0.006 0.013 -0.013 0.02 -0.019 c 0.037 -0.03 0.069 -0.066 0.104 -0.1 c 0.039 -0.038 0.079 -0.076 0.113 -0.117 c 0.005 -0.006 0.012 -0.011 0.017 -0.017 l 3.422 -4.358 v 12.324 c 0 0.828 0.671 1.5 1.5 1.5 s 1.5 -0.672 1.5 -1.5 V 64.187 C 37.297 63.547 36.891 62.978 36.287 62.769 z" style="stroke: none; stroke-width: 1; stroke-dasharray: none; stroke-linecap: butt; stroke-linejoin: miter; stroke-miterlimit: 10; fill: rgb(255,255,255); fill-rule: nonzero; opacity: 1;" transform=" matrix(1 0 0 1 0 0) " stroke-linecap="round" />
	<path d="M 49.337 62.719 h -5.945 c -0.829 0 -1.5 0.672 -1.5 1.5 v 9.854 v 6.747 c 0 0.828 0.671 1.5 1.5 1.5 s 1.5 -0.672 1.5 -1.5 v -5.247 h 4.445 c 2.392 0 4.338 -1.946 4.338 -4.339 v -4.177 C 53.675 64.665 51.729 62.719 49.337 62.719 z M 50.675 71.233 c 0 0.738 -0.601 1.339 -1.338 1.339 h -4.445 v -6.854 h 4.445 c 0.737 0 1.338 0.601 1.338 1.338 V 71.233 z" style="stroke: none; stroke-width: 1; stroke-dasharray: none; stroke-linecap: butt; stroke-linejoin: miter; stroke-miterlimit: 10; fill: rgb(0,0,0); fill-rule: nonzero; opacity: 1;" transform=" matrix(1 0 0 1 0 0) " stroke-linecap="round" />
	<path d="M 63.961 82.351 c -0.828 0 -1.5 -0.672 -1.5 -1.5 v -1.905 h -6.068 c -0.534 0 -1.028 -0.284 -1.297 -0.747 c -0.269 -0.462 -0.271 -1.032 -0.006 -1.496 l 7.568 -13.259 c 0.337 -0.592 1.029 -0.877 1.688 -0.707 c 0.657 0.175 1.115 0.77 1.115 1.45 v 11.759 h 0.945 c 0.828 0 1.5 0.672 1.5 1.5 s -0.672 1.5 -1.5 1.5 h -0.945 v 1.905 C 65.461 81.679 64.789 82.351 63.961 82.351 z M 58.976 75.945 h 3.485 V 69.84 L 58.976 75.945 z" style="stroke: none; stroke-width: 1; stroke-dasharray: none; stroke-linecap: butt; stroke-linejoin: miter; stroke-miterlimit: 10; fill: rgb(255,255,255); fill-rule: nonzero; opacity: 1;" transform=" matrix(1 0 0 1 0 0) " stroke-linecap="round" />
</g>
</g>
</svg>