<svg xmlns="http://www.w3.org/2000/svg" xmlns:xlink="http://www.w3.org/1999/xlink" version="1.1" width="25" height="25" viewBox="0 0 256 256" xml:space="preserve">
<desc>Created with Fabric.js 1.7.22</desc>
<defs>
</defs>
<g transform="translate(128 128) scale(0.72 0.72)" style="">
	<g style="stroke: none; stroke-width: 0; stroke-dasharray: none; stroke-linecap: butt; stroke-linejoin: miter; stroke-miterlimit: 10; fill: none; fill-rule: nonzero; opacity: 1;" transform="translate(-175.05 -175.05) scale(3.89 3.89)" >
	<path d="M 80.163 0 H 9.837 C 4.404 0 0 4.404 0 9.837 v 70.325 C 0 85.596 4.404 90 9.837 90 h 70.325 C 85.596 90 90 85.596 90 80.163 V 9.837 C 90 4.404 85.596 0 80.163 0 z M 59.578 45.15 c -0.128 0.609 -0.618 1.076 -1.232 1.173 c -0.079 0.013 -0.158 0.019 -0.235 0.019 c -0.531 0 -1.03 -0.282 -1.301 -0.752 c -1.969 -3.427 -4.074 -5.511 -6.37 -6.298 v 21.928 h -0.001 c 0.011 4.291 -3.949 8.147 -9.251 8.808 c -0.527 0.065 -1.048 0.098 -1.562 0.098 c -4.991 0 -9.202 -3.009 -9.724 -7.195 c -0.288 -2.306 0.557 -4.589 2.379 -6.43 c 1.727 -1.745 4.148 -2.889 6.819 -3.222 c 2.299 -0.286 4.497 0.081 6.34 0.919 V 37.537 v -0.75 V 21.375 c 0 -0.829 0.672 -1.5 1.5 -1.5 s 1.5 0.671 1.5 1.5 c 0 4.336 2.222 5.82 5.034 7.699 C 57.178 31.549 61.787 34.628 59.578 45.15 z" style="stroke: none; stroke-width: 1; stroke-dasharray: none; stroke-linecap: butt; stroke-linejoin: miter; stroke-miterlimit: 10; fill: rgb(255,255,255); fill-rule: nonzero; opacity: 1;" transform=" matrix(1 0 0 1 0 0) " stroke-linecap="round" />
</g>
</g>
</svg>