<svg xmlns="http://www.w3.org/2000/svg" xmlns:xlink="http://www.w3.org/1999/xlink" version="1.1" width="25" height="25" viewBox="0 0 256 256" xml:space="preserve">
<desc>Created with Fabric.js 1.7.22</desc>
<defs>
</defs>
<g transform="translate(128 128) scale(0.72 0.72)" style="">
	<g style="stroke: none; stroke-width: 0; stroke-dasharray: none; stroke-linecap: butt; stroke-linejoin: miter; stroke-miterlimit: 10; fill: none; fill-rule: nonzero; opacity: 1;" transform="translate(-175.05 -175.05) scale(3.89 3.89)" >
	<path d="M 77.474 17.28 L 61.526 1.332 C 60.668 0.473 59.525 0 58.311 0 H 15.742 c -2.508 0 -4.548 2.04 -4.548 4.548 v 80.904 c 0 2.508 2.04 4.548 4.548 4.548 h 58.516 c 2.508 0 4.549 -2.04 4.549 -4.548 V 20.496 C 78.807 19.281 78.333 18.138 77.474 17.28 z M 61.073 5.121 l 12.611 12.612 H 62.35 c -0.704 0 -1.276 -0.573 -1.276 -1.277 V 5.121 z M 15.742 3 h 42.332 v 13.456 c 0 2.358 1.918 4.277 4.276 4.277 h 13.457 v 33.2 H 14.194 V 4.548 C 14.194 3.694 14.888 3 15.742 3 z M 74.258 87 H 15.742 c -0.854 0 -1.548 -0.694 -1.548 -1.548 V 56.934 h 61.613 v 28.519 C 75.807 86.306 75.112 87 74.258 87 z" style="stroke: none; stroke-width: 1; stroke-dasharray: none; stroke-linecap: butt; stroke-linejoin: miter; stroke-miterlimit: 10; fill: rgb(255,255,255); fill-rule: nonzero; opacity: 1;" transform=" matrix(1 0 0 1 0 0) " stroke-linecap="round" />
	<path d="M 31.15 62.719 h -5.944 c -0.829 0 -1.5 0.672 -1.5 1.5 v 9.854 v 6.747 c 0 0.828 0.671 1.5 1.5 1.5 s 1.5 -0.672 1.5 -1.5 v -5.247 h 4.444 c 2.392 0 4.338 -1.946 4.338 -4.339 v -4.177 C 35.488 64.665 33.542 62.719 31.15 62.719 z M 32.488 71.233 c 0 0.738 -0.601 1.339 -1.338 1.339 h -4.444 v -6.854 h 4.444 c 0.738 0 1.338 0.601 1.338 1.338 V 71.233 z" style="stroke: none; stroke-width: 1; stroke-dasharray: none; stroke-linecap: butt; stroke-linejoin: miter; stroke-miterlimit: 10; fill: rgb(255,255,255); fill-rule: nonzero; opacity: 1;" transform=" matrix(1 0 0 1 0 0) " stroke-linecap="round" />
	<path d="M 62.699 82.351 h -5.824 c -1.982 0 -3.596 -1.612 -3.596 -3.595 V 66.305 c 0 -1.974 1.606 -3.586 3.58 -3.595 l 5.482 -0.023 c 0.003 0 0.005 0 0.007 0 c 0.825 0 1.496 0.667 1.5 1.493 c 0.004 0.829 -0.665 1.503 -1.493 1.507 l -5.482 0.023 c -0.327 0.001 -0.594 0.269 -0.594 0.595 v 12.451 c 0 0.328 0.268 0.595 0.596 0.595 h 5.824 c 0.328 0 0.595 -0.267 0.595 -0.595 v -5.099 c 0 -0.328 -0.267 -0.595 -0.595 -0.595 h -2.386 c -0.828 0 -1.5 -0.672 -1.5 -1.5 s 0.672 -1.5 1.5 -1.5 h 2.386 c 1.982 0 3.595 1.612 3.595 3.595 v 5.099 C 66.294 80.738 64.682 82.351 62.699 82.351 z" style="stroke: none; stroke-width: 1; stroke-dasharray: none; stroke-linecap: butt; stroke-linejoin: miter; stroke-miterlimit: 10; fill: rgb(255,255,255); fill-rule: nonzero; opacity: 1;" transform=" matrix(1 0 0 1 0 0) " stroke-linecap="round" />
	<path d="M 48.53 82.335 c -0.552 0 -1.071 -0.305 -1.333 -0.813 l -5.748 -11.142 v 10.454 c 0 0.828 -0.671 1.5 -1.5 1.5 s -1.5 -0.672 -1.5 -1.5 V 64.202 c 0 -0.692 0.474 -1.294 1.146 -1.458 c 0.674 -0.161 1.37 0.155 1.687 0.771 l 5.748 11.142 V 64.202 c 0 -0.828 0.672 -1.5 1.5 -1.5 s 1.5 0.672 1.5 1.5 v 16.633 c 0 0.692 -0.474 1.294 -1.146 1.458 C 48.766 82.321 48.647 82.335 48.53 82.335 z" style="stroke: none; stroke-width: 1; stroke-dasharray: none; stroke-linecap: butt; stroke-linejoin: miter; stroke-miterlimit: 10; fill: rgb(255,255,255); fill-rule: nonzero; opacity: 1;" transform=" matrix(1 0 0 1 0 0) " stroke-linecap="round" />
</g>
</g>
</svg>