<svg xmlns="http://www.w3.org/2000/svg" xmlns:xlink="http://www.w3.org/1999/xlink" version="1.1" width="256" height="256" viewBox="0 0 256 256" xml:space="preserve">
<desc>Created with Fabric.js 1.7.22</desc>
<defs>
</defs>
<g transform="translate(128 128) scale(0.72 0.72)" style="">
	<g style="stroke: none; stroke-width: 0; stroke-dasharray: none; stroke-linecap: butt; stroke-linejoin: miter; stroke-miterlimit: 10; fill: none; fill-rule: nonzero; opacity: 1;" transform="translate(-175.05 -175.05) scale(3.89 3.89)" >
	<path d="M 78.659 0 H 11.341 C 5.078 0 0 5.078 0 11.341 v 67.318 C 0 84.922 5.078 90 11.341 90 h 67.318 C 84.922 90 90 84.922 90 78.659 V 11.341 C 90 5.078 84.922 0 78.659 0 z M 72.5 48.3 c 0 2.383 -1.932 4.315 -4.315 4.315 h -0.002 c -1.617 0 -3.092 0.906 -3.831 2.344 c -0.321 0.625 -0.673 1.235 -1.055 1.829 c -0.873 1.357 -0.916 3.086 -0.11 4.483 l 0.001 0.001 c 1.192 2.064 0.484 4.703 -1.579 5.894 l -5.715 3.3 c -2.064 1.192 -4.703 0.484 -5.894 -1.579 l -0.001 -0.001 c -0.807 -1.397 -2.326 -2.225 -3.938 -2.147 c -0.705 0.034 -1.41 0.034 -2.111 0 c -1.615 -0.079 -3.137 0.746 -3.945 2.146 l -0.001 0.002 c -1.192 2.064 -3.831 2.771 -5.894 1.579 l -5.715 -3.3 c -2.064 -1.191 -2.771 -3.83 -1.579 -5.894 c 0.82 -1.421 0.739 -3.167 -0.146 -4.548 c -0.177 -0.275 -0.347 -0.556 -0.513 -0.842 c -0.165 -0.286 -0.323 -0.575 -0.473 -0.865 c -0.754 -1.457 -2.225 -2.401 -3.866 -2.401 l 0 0 c -2.383 0 -4.315 -1.932 -4.315 -4.315 v -6.6 c 0 -2.383 1.932 -4.315 4.315 -4.315 h 0.002 c 1.617 0 3.092 -0.906 3.831 -2.344 c 0.321 -0.625 0.673 -1.235 1.055 -1.829 c 0.873 -1.357 0.916 -3.086 0.11 -4.483 l -0.001 -0.001 c -1.192 -2.064 -0.484 -4.703 1.579 -5.894 l 5.715 -3.3 c 2.064 -1.192 4.703 -0.484 5.894 1.579 l 0.001 0.001 c 0.807 1.397 2.326 2.225 3.938 2.147 c 0.705 -0.034 1.41 -0.034 2.111 0 c 1.615 0.079 3.137 -0.746 3.945 -2.146 l 0.001 -0.002 c 1.192 -2.064 3.831 -2.771 5.894 -1.579 l 5.715 3.3 c 2.064 1.192 2.771 3.831 1.579 5.894 c -0.82 1.421 -0.739 3.167 0.146 4.548 c 0.176 0.275 0.347 0.556 0.513 0.842 c 0.165 0.286 0.323 0.575 0.473 0.865 c 0.754 1.457 2.225 2.401 3.866 2.401 c 2.383 0 4.315 1.932 4.315 4.315 V 48.3 z" style="stroke: none; stroke-width: 1; stroke-dasharray: none; stroke-linecap: butt; stroke-linejoin: miter; stroke-miterlimit: 10; fill: rgb(0,0,0); fill-rule: nonzero; opacity: 1;" transform=" matrix(1 0 0 1 0 0) " stroke-linecap="round" />
	<circle cx="44.998" cy="44.998" r="9.378" style="stroke: none; stroke-width: 1; stroke-dasharray: none; stroke-linecap: butt; stroke-linejoin: miter; stroke-miterlimit: 10; fill: rgb(0,0,0); fill-rule: nonzero; opacity: 1;" transform="  matrix(1 0 0 1 0 0) "/>
</g>
</g>
</svg>